HIERARCHY
ROOT hips
{
  OFFSET 0 10.680822821525009 1.3929502295107734
  CHANNELS 6 Xposition Yposition Zposition Yrotation Xrotation Zrotation
  JOINT spine
  {
    OFFSET -7.042017322922631e-31 0.6058489940359625 0
    CHANNELS 3 Yrotation Xrotation Zrotation
    JOINT chest
    {
      OFFSET 0 1.2699794144455032 0
      CHANNELS 3 Yrotation Xrotation Zrotation
      JOINT upperChest
      {
        OFFSET 0 1.217799211677689 0
        CHANNELS 3 Yrotation Xrotation Zrotation
        JOINT neck
        {
          OFFSET 0 1.5248826104153006 0
          CHANNELS 3 Yrotation Xrotation Zrotation
          JOINT head
          {
            OFFSET 0 0.8197772727844447 0
            CHANNELS 3 Yrotation Xrotation Zrotation
            JOINT leftEye
            {
              OFFSET 0.2793952361220866 0.6769952096623495 0.1830357412467788
              CHANNELS 3 Yrotation Xrotation Zrotation
              End Site
              {
                OFFSET 0.2793952361220866 0.6769952096623495 0.1830357412467788
              }
            }
            JOINT rightEye
            {
              OFFSET -0.27939522230689573 0.676995205357064 0.18303631459760622
              CHANNELS 3 Yrotation Xrotation Zrotation
              End Site
              {
                OFFSET -0.27939522230689573 0.676995205357064 0.18303631459760622
              }
            }
          }
        }
        JOINT leftShoulder
        {
          OFFSET 0.41486978509200423 1.1670505408695453 0
          CHANNELS 3 Yrotation Xrotation Zrotation
          JOINT leftUpperArm
          {
            OFFSET 0.9737926108153417 0 0
            CHANNELS 3 Yrotation Xrotation Zrotation
            JOINT leftLowerArm
            {
              OFFSET 2.5269332222665284 0 0
              CHANNELS 3 Yrotation Xrotation Zrotation
              JOINT leftHand
              {
                OFFSET 2.4263782738425914 0 0
                CHANNELS 3 Yrotation Xrotation Zrotation
                JOINT leftIndexProximal
                {
                  OFFSET 0.724320348022514 0.08170607082582437 0.20360061616140124
                  CHANNELS 3 Yrotation Xrotation Zrotation
                  JOINT leftIndexIntermediate
                  {
                    OFFSET 0.36548960630744587 -0.010566596513783999 -0.01414783573280308
                    CHANNELS 3 Yrotation Xrotation Zrotation
                    JOINT leftIndexDistal
                    {
                      OFFSET 0.22502819650693362 -0.007863819831430696 -0.007567681939621526
                      CHANNELS 3 Yrotation Xrotation Zrotation
                      End Site
                      {
                        OFFSET 0.22502819650693362 -0.007863819831430696 -0.007567681939621526
                      }
                    }
                  }
                }
                JOINT leftLittleProximal
                {
                  OFFSET 0.6720322998298205 0.08170601055037707 -0.3230036039466837
                  CHANNELS 3 Yrotation Xrotation Zrotation
                  JOINT leftLittleIntermediate
                  {
                    OFFSET 0.34583592281688713 5.476543019078406e-8 1.3869203337180114e-7
                    CHANNELS 3 Yrotation Xrotation Zrotation
                    JOINT leftLittleDistal
                    {
                      OFFSET 0.19925728062053938 0.003098047439490381 0.0038303983709246925
                      CHANNELS 3 Yrotation Xrotation Zrotation
                      End Site
                      {
                        OFFSET 0.19925728062053938 0.003098047439490381 0.0038303983709246925
                      }
                    }
                  }
                }
                JOINT leftMiddleProximal
                {
                  OFFSET 0.7300436596551069 0.0817073395107144 0.022661722987926763
                  CHANNELS 3 Yrotation Xrotation Zrotation
                  JOINT leftMiddleIntermediate
                  {
                    OFFSET 0.40758254347686607 -0.0000012383587111308714 2.408460318820138e-7
                    CHANNELS 3 Yrotation Xrotation Zrotation
                    JOINT leftMiddleDistal
                    {
                      OFFSET 0.2514490105498507 0.0000013869132886590307 9.738618134136345e-8
                      CHANNELS 3 Yrotation Xrotation Zrotation
                      End Site
                      {
                        OFFSET 0.2514490105498507 0.0000013869132886590307 9.738618134136345e-8
                      }
                    }
                  }
                }
                JOINT leftRingProximal
                {
                  OFFSET 0.7217261161191838 0.08170601902187746 -0.15043395722184966
                  CHANNELS 3 Yrotation Xrotation Zrotation
                  JOINT leftRingIntermediate
                  {
                    OFFSET 0.37808807487521556 0.0000013754022405443322 2.2046919317952884e-7
                    CHANNELS 3 Yrotation Xrotation Zrotation
                    JOINT leftRingDistal
                    {
                      OFFSET 0.21812105442344254 -0.002713483731960231 -0.004991354517454624
                      CHANNELS 3 Yrotation Xrotation Zrotation
                      End Site
                      {
                        OFFSET 0.21812105442344254 -0.002713483731960231 -0.004991354517454624
                      }
                    }
                  }
                }
                JOINT leftThumbProximal
                {
                  OFFSET 0.10793587079521427 -0.1652791240518252 -0.07775251827190094
                  CHANNELS 3 Yrotation Xrotation Zrotation
                  JOINT leftThumbIntermediate
                  {
                    OFFSET 0.40355819082296684 -0.017484006740276614 0.3177776014416309
                    CHANNELS 3 Yrotation Xrotation Zrotation
                    JOINT leftThumbDistal
                    {
                      OFFSET 0.2318764658022603 -0.018510186824293617 0.21396001800186287
                      CHANNELS 3 Yrotation Xrotation Zrotation
                      End Site
                      {
                        OFFSET 0.2318764658022603 -0.018510186824293617 0.21396001800186287
                      }
                    }
                  }
                }
              }
            }
          }
        }
        JOINT rightShoulder
        {
          OFFSET -0.4148697850920044 1.1670505408695453 0
          CHANNELS 3 Yrotation Xrotation Zrotation
          JOINT rightUpperArm
          {
            OFFSET -0.9737926108153414 0 0
            CHANNELS 3 Yrotation Xrotation Zrotation
            JOINT rightLowerArm
            {
              OFFSET -2.5269332222665293 0 0
              CHANNELS 3 Yrotation Xrotation Zrotation
              JOINT rightHand
              {
                OFFSET -2.42637827384259 0 0
                CHANNELS 3 Yrotation Xrotation Zrotation
                JOINT rightIndexProximal
                {
                  OFFSET -0.724320348022514 0.08170607082582437 0.20360061616140124
                  CHANNELS 3 Yrotation Xrotation Zrotation
                  JOINT rightIndexIntermediate
                  {
                    OFFSET -0.36548960630744587 -0.010566596513783999 -0.01414783573280308
                    CHANNELS 3 Yrotation Xrotation Zrotation
                    JOINT rightIndexDistal
                    {
                      OFFSET -0.22502819650693362 -0.007863819831430696 -0.007567681939621526
                      CHANNELS 3 Yrotation Xrotation Zrotation
                      End Site
                      {
                        OFFSET -0.22502819650693362 -0.007863819831430696 -0.007567681939621526
                      }
                    }
                  }
                }
                JOINT rightLittleProximal
                {
                  OFFSET -0.6720322998298205 0.08170601055037707 -0.3230036039466837
                  CHANNELS 3 Yrotation Xrotation Zrotation
                  JOINT rightLittleIntermediate
                  {
                    OFFSET -0.34583592281688713 5.476543019078406e-8 1.3869203337180114e-7
                    CHANNELS 3 Yrotation Xrotation Zrotation
                    JOINT rightLittleDistal
                    {
                      OFFSET -0.19925728062053938 0.003098047439490381 0.0038303983709246925
                      CHANNELS 3 Yrotation Xrotation Zrotation
                      End Site
                      {
                        OFFSET -0.19925728062053938 0.003098047439490381 0.0038303983709246925
                      }
                    }
                  }
                }
                JOINT rightMiddleProximal
                {
                  OFFSET -0.7300436596551069 0.0817073395107144 0.022661722987926763
                  CHANNELS 3 Yrotation Xrotation Zrotation
                  JOINT rightMiddleIntermediate
                  {
                    OFFSET -0.40758254347686607 -0.0000012383587111308714 2.408460318820138e-7
                    CHANNELS 3 Yrotation Xrotation Zrotation
                    JOINT rightMiddleDistal
                    {
                      OFFSET -0.2514490105498507 0.0000013869132886590307 9.738618134136345e-8
                      CHANNELS 3 Yrotation Xrotation Zrotation
                      End Site
                      {
                        OFFSET -0.2514490105498507 0.0000013869132886590307 9.738618134136345e-8
                      }
                    }
                  }
                }
                JOINT rightRingProximal
                {
                  OFFSET -0.7217261161191838 0.08170601902187746 -0.15043395722184966
                  CHANNELS 3 Yrotation Xrotation Zrotation
                  JOINT rightRingIntermediate
                  {
                    OFFSET -0.37808807487521556 0.0000013754022405443322 2.2046919317952884e-7
                    CHANNELS 3 Yrotation Xrotation Zrotation
                    JOINT rightRingDistal
                    {
                      OFFSET -0.21812105442344254 -0.002713483731960231 -0.004991354517454624
                      CHANNELS 3 Yrotation Xrotation Zrotation
                      End Site
                      {
                        OFFSET -0.21812105442344254 -0.002713483731960231 -0.004991354517454624
                      }
                    }
                  }
                }
                JOINT rightThumbProximal
                {
                  OFFSET -0.10793587079521427 -0.1652791240518252 -0.07775251827190094
                  CHANNELS 3 Yrotation Xrotation Zrotation
                  JOINT rightThumbIntermediate
                  {
                    OFFSET -0.40355819082296684 -0.017484006740276614 0.3177776014416309
                    CHANNELS 3 Yrotation Xrotation Zrotation
                    JOINT rightThumbDistal
                    {
                      OFFSET -0.2318764658022603 -0.018510186824293617 0.21396001800186287
                      CHANNELS 3 Yrotation Xrotation Zrotation
                      End Site
                      {
                        OFFSET -0.2318764658022603 -0.018510186824293617 0.21396001800186287
                      }
                    }
                  }
                }
              }
            }
          }
        }
      }
    }
  }
  JOINT leftUpperLeg
  {
    OFFSET 0.8486251390888677 -0.4421577294694363 0
    CHANNELS 3 Yrotation Xrotation Zrotation
    JOINT leftLowerLeg
    {
      OFFSET 0 -4.10147812638609 0
      CHANNELS 3 Yrotation Xrotation Zrotation
      JOINT leftFoot
      {
        OFFSET -0.0002543926476658853 -4.77292286812444 0.007402811231737388
        CHANNELS 3 Yrotation Xrotation Zrotation
        JOINT leftToes
        {
          OFFSET 0 -0.7027875951174846 1.2062924140498823
          CHANNELS 3 Yrotation Xrotation Zrotation
          End Site
          {
            OFFSET 0 -0.7027875951174846 1.2062924140498823
          }
        }
      }
    }
  }
  JOINT rightUpperLeg
  {
    OFFSET -0.8486251390888677 -0.4421577294694363 0
    CHANNELS 3 Yrotation Xrotation Zrotation
    JOINT rightLowerLeg
    {
      OFFSET 0 -4.10147812638609 0
      CHANNELS 3 Yrotation Xrotation Zrotation
      JOINT rightFoot
      {
        OFFSET 0.0002543926476658853 -4.77292286812444 0.007402811231737388
        CHANNELS 3 Yrotation Xrotation Zrotation
        JOINT rightToes
        {
          OFFSET 0 -0.7027875951174846 1.2062924140498823
          CHANNELS 3 Yrotation Xrotation Zrotation
          End Site
          {
            OFFSET 0 -0.7027875951174846 1.2062924140498823
          }
        }
      }
    }
  }
}
MOTION
Frames: 4
Frame Time: 0.03333333333333333
0.04283485561609268 -0.9528698643716886 0.09948648512363434 11.994464573363738 9.899601667348074 -0.8597952454437215 -8.102960889203105 5.755643692282422 1.4101925255260563 -4.46839940714927 0.29929758255778627 1.5976012655777811 0 0 0 -1.5963464967256966 -6.186807265065581 -2.6270548318761655 -10.820432858334764 -5.9458886771807276 1.316334149372393 0 0 0 0 0 0 -2.0243965282640013 0.5993482373893612 -9.541564292839013 -35.9740017898577 -7.796094674403447 -47.87487638900572 -51.795417017657904 -6.336118454855628 3.794107091003987 -34.0221166459819 4.875087500738439 -1.6772842879708898 -2.9703484344373083 -0.4651921130949308 -1.3970022532361175 2.629286531122659 0.7256915701424805 -30.856223898366157 2.629314408453895 0.7256805769250434 -30.8562361975933 15.572931581119994 3.788178209439524 -22.07082193447463 2.221196417925879 0.5062934539291233 -25.678930137393 2.2212119881954053 0.5062792060251575 -25.678960680467252 0.18773848219372596 -1.230510801448241 -14.638461744152679 2.2506243164904975 0.5205361974956147 -26.043892748904295 0.8265593259606182 0.06707829597579865 -9.281551066952797 5.397143937114062 1.0755453928498857 -20.397355128883273 2.0534824318947633 0.4293069662230635 -23.617048685939125 1.7018929105484306 0.2907764884228619 -19.393169995249973 -2.5250642094424594 5.578648444581324 4.011293386842735 13.468481953263346 7.394482953086447 5.319500753405123 -7.513531374295497 -11.24507920276814 14.385580143622668 0.029086988509967437 0.6585295249945402 10.660072479459085 11.895998667030337 14.32603179570836 55.01191812721086 19.822884641729797 -2.822350253517083 -0.7516261924554647 2.5328492370580507 -0.8056797539867038 -0.7393312136313331 3.1308254561230235 -0.41054086423135694 0.5867551489151739 -2.0157993156312783 0.5574318444690064 30.91147356219932 -2.015810408345212 0.5574130071964629 30.911481176981688 -15.021287848551315 3.557340886017225 21.6883313443439 -1.7030457850937433 0.38887401632590707 25.72366147409165 -1.7030454650626787 0.38890360560040155 25.723889063882154 0.2563292967365176 -1.2534787599548276 13.882879971165522 -1.7255825440798769 0.3998166921392704 26.089508894036676 -0.6353644532824305 0.05179626637814518 9.31995197406197 -4.864817246916463 0.9541328398312823 19.764811888214062 -1.5744712052967953 0.32977461303538563 23.657994272819334 -1.30434746036583 0.22315890601759383 19.41719310605348 4.440595359586193 4.612890756828868 -3.3391593936868182 -15.365676661710353 7.715883948842786 -6.3408808333565 1.4586807858698503 -9.460596061821978 -14.975442114493415 4.23123769739526 0.35208323303217465 -5.61626463717393 4.624467650421132 25.171101137168105 2.0179080482402503 -0.8568369351989691 -23.903195993939182 3.4945393436852945 0.000004997164898088949 -13.813155666145475 -0.0000019419969972866963 -3.733189603110468 -47.10811571104828 1.291858930622669 -11.490807571507865 30.960544897539386 -4.644480083055108 -14.541950670297402 5.194601165369899 0.6943619747705996 5.148212150426689e-8 -0.00003398702667733686 0.000003833401950934449
0.007149735931307077 -0.9917988499673918 0.1991722583770752 13.666509495378069 9.653195411715165 -0.820498238436661 -7.588471491205772 5.677819788165569 1.2469862174422834 -4.164373249881349 0.2117797155358532 1.5280139093170109 0 0 0 -1.6293928453094582 -6.172635085799815 -2.5696605609175096 -10.871215185422184 -5.988332634976983 1.1684420459624802 0 0 0 0 0 0 -1.9444070564664364 0.6029286275145276 -9.56180224477378 -34.39092653309739 -8.037691506229853 -47.320608395464646 -53.247809741313425 -6.450176469395731 3.9743451427815364 -32.002487414917546 5.619476029343059 -2.638474928548444 -2.949892967905274 -0.4624148031507048 -1.3754737685387253 2.6206225159214482 0.7205405569460961 -30.74346110676618 2.6211849480714373 0.7208464989181683 -30.75090752820162 15.531681412880573 3.7641478052992747 -22.004993441189274 2.2134298015979037 0.5025820627718579 -25.582755272041947 2.213703851416359 0.5026686174056824 -25.585607200123533 0.19393270728821277 -1.2224983277358545 -14.574928830315766 2.2420202654554853 0.5163294291699375 -25.937198547063225 0.8237580065049319 0.0666234477561538 -9.24962047531847 5.388394081634479 1.0697593153974119 -20.327984244368224 2.0454229027724278 0.42580639680785914 -23.51850997725527 1.6963992584281173 0.2888670259148516 -19.328156880381332 -2.4160186155627854 5.522224371842022 3.9422642337707208 13.429183084297074 7.3878959996286016 5.4315819109679975 -7.677130779269293 -11.199289221272421 14.490623265773037 -0.07445652537780001 0.6514496246651991 10.485613408081305 12.362295620729476 13.542451291828169 56.27717087669142 17.16595650716747 -2.462134617649114 -0.5949229642886852 4.540775002032073 -3.317120267780584 -0.2038438926680751 3.116012420494415 -0.40575891679018755 0.5332143890865022 -2.008422000951473 0.553000391099831 30.785974751398147 -2.0084100549070194 0.5530048202569199 30.785578217750107 -14.988499680751103 3.5284535270545487 21.59408633583996 -1.6961961847232827 0.38560807077313153 25.61289063140577 -1.6962084526194352 0.38561127249681576 25.613125855637147 0.25424378617446847 -1.2450601515609199 13.789704319666283 -1.7182405340176543 0.3962397211367257 25.97042843342808 -0.6306680968829005 0.05103340597785323 9.250479538804827 -4.856184399458584 0.9479438358672365 19.671322702013978 -1.5677727950075704 0.32684929637390037 23.551169067689333 -1.2985419647585452 0.22110844647424974 19.327151464971127 4.288692598589092 4.345136621625114 -3.2684957670024066 -15.271924870909553 7.72838385399653 -6.4003418547286275 1.4846340864062737 -9.430519650800925 -14.971572016712347 4.015828486288615 0.1068805696665194 -4.582717928687259 3.094524977326219 27.55342477835026 1.489379786816885 -0.8161113242410922 -23.392839061515684 3.2900774806929416 0.000009672421942170344 -16.68185432324017 -0.000005035051661516799 -7.932725999443549 -47.645770097289066 3.3554270950056666 -8.580996824114369 34.20038714390294 -3.6292175410846608 -15.959032620481599 2.891285090209059 0.8638553400962204 0.000005823141450253885 -0.09167281044085603 -6.334886112830684e-7
-0.07310216128826141 -1.0418076237711027 0.4150303602218628 17.409506326535816 9.153358278527849 -1.289897674743665 -6.146104058089234 5.5612166053344145 1.2363388782548859 -3.354957210664462 -0.052843763702508165 1.5033669234120128 0 0 0 -1.7392632048804342 -6.015106025350435 -2.3312168997459866 -11.224788980234408 -5.182809188221494 1.0293202176265268 0 0 0 0 0 0 -2.0225681921994183 0.5939296292375292 -9.112271241118435 -30.16987021404219 -7.611902069813545 -45.85176606555794 -61.93671922769412 -7.033508699199922 5.107058413398836 -27.323671464310834 5.412826954335477 -7.053692259228535 -2.793250592392928 -0.4458777019362484 -1.2183863298479312 2.554848271797112 0.6820541997373054 -29.892338832896403 2.5597906492619598 0.684906646996463 -29.95615938290964 15.216482492625339 3.5869470861194994 -21.509891404478836 2.154695427143531 0.4748946165999032 -24.857287035434375 2.156718373603258 0.4758132552980083 -24.881750111268055 0.24229413672287647 -1.1628490995919967 -14.09903108452987 2.177077725040778 0.4853151297177565 -25.13290197289214 0.8028574817741377 0.06327968781236289 -9.012987470557674 5.322026022465964 1.0269111681337293 -19.807313567708185 1.9843225102496955 0.39968328676011117 -22.776251910143753 1.6551273758149867 0.2745766833257098 -18.84019320291366 -1.5829787635132933 5.095932515956345 3.4189612116749415 13.117024549641412 7.3421438712946205 6.277506828274803 -8.90883522514255 -10.839635720311826 15.280131322223925 0.0044417211779481085 0.6279308568939916 10.042698578136356 11.408621846880685 15.043088666675166 57.66319883105362 15.709327106383709 -2.261580905999193 -0.5161155825896204 5.884109452326846 -7.338858949069282 2.818202947996438 3.0024773448090505 -0.3712164148714865 0.1378673559818585 -1.9523902061504537 0.5202479836414476 29.8385507704669 -1.9521667156956808 0.5200962191214198 29.834999868987115 -14.73620639681143 3.3137054341881833 20.88598489669012 -1.644432792562 0.36124949782648896 24.77779833687616 -1.644448901223006 0.361248697397786 24.778009193256096 0.23662218895691497 -1.182209909763199 13.091723269363682 -1.6627895464147224 0.3697623545921766 25.073401740829798 -0.5956385816039671 0.04548103050520195 8.732503187343097 -4.790639996127124 0.9019047088336274 18.96977624072803 -1.5171463387262867 0.30518248605811565 22.747273532461133 -1.2548058639096284 0.20608696847472638 18.651826381350915 3.1354741692333845 2.3117602166439157 -2.7031720984921326 -14.566243649982185 7.824720026360829 -6.85417366506558 1.6775453312788844 -9.200997333460068 -14.944055724515614 3.5333529215189023 -2.7747649887138377 -1.5233147860673477 -0.3366789317411921 35.0040700834711 -0.2127262115418809 -0.9460157951488242 -19.609034320028343 3.0394702378611878 -0.0002565702548251047 -24.515286545973783 -0.030476300090913823 -17.137856793405284 -47.18114747103658 7.9418893660866114 -1.2619854628760034 39.02636636476275 0.4038855424783296 -19.508740527106546 -1.4377093224144466 0.7445127229234618 0.00001413838623378144 0.04532094789627238 0.000004084909829879102
-0.17966139316558838 -0.9401631077798918 0.6963823437690735 21.879400258501352 7.801829584224473 -2.570453570026745 -5.028870586320658 5.405573864548865 1.2495800658558218 -2.741041859035995 -0.4360171247121234 1.5201000516453895 0 0 0 -1.814566807309585 -5.651258104919794 -2.04107091804874 -11.61297684176837 -3.4610407666413225 1.0789474164154167 0 0 0 0 0 0 -2.1176285944555335 0.5754418524235335 -7.855058438966905 -26.80390288171676 -8.611601903317007 -43.95361512686283 -72.51390740075419 -7.503066979243659 6.5836075263388425 -26.58142319892961 6.251640633589464 -11.18259222163394 -2.498863762073725 -0.4209629934400413 -0.9431342673524038 2.4318919769749088 0.6135924877625292 -28.320308509027456 2.4451741320150635 0.6208080407716506 -28.489103271104817 14.625730531913591 3.2687678561829454 -20.59779054643154 2.045463218986951 0.42581458792498106 -23.519079041509745 2.0507776779587092 0.4281388377714135 -23.583832797868315 0.33650977481003364 -1.0555308649102775 -13.229400209822707 2.0562628216626595 0.43051431618712066 -23.650659597440214 0.7652579013295487 0.05744317453335337 -8.587645308345609 5.198272606157139 0.9502040847871832 -18.853609199863754 1.8709674493818025 0.35366458521822336 -21.4090460679307 1.5792612072496728 0.2493763033534607 -17.9464460505833 -0.0045145836611788885 4.314330354011414 2.4502376664517613 12.548434474904697 7.292182269229777 7.8510266074886585 -11.163485575364836 -10.122218955172476 16.718749986484333 -0.1293987258450746 0.6045491264981097 9.541180322329998 8.689365170873874 18.749506487413132 57.940441485316406 14.637366415935414 -2.112745280501772 -0.46135598878978595 6.179973962330708 -15.376810548962185 6.347620341351384 2.787921890195335 -0.3129959626422191 -0.5681088433381098 -1.8474671565616276 0.46218155527022536 28.088254539018642 -1.846914373612908 0.46187237243611495 28.07883670694772 -14.252015681289198 2.932320486992886 19.586340600832294 -1.5480877053663011 0.31832772657965824 23.237958706266923 -1.5480845048344114 0.3183315686203644 23.238168347157437 0.1971347054420329 -1.0689699709060536 11.817681298754273 -1.5596719672111878 0.3233327862444941 23.42224628459407 -0.5319681063457411 0.03623213158438314 7.793046747610953 -4.667295470982527 0.8199434246765475 17.68602746714359 -1.4233132244001945 0.26728326708842 21.26969797674308 -1.1742734886740516 0.17984703356579265 17.41524382916938 0.978701410875956 -1.469937592803561 -1.5164041672203337 -13.273592372940227 8.007489943479358 -7.708205505472339 2.026626362330239 -8.769437800997698 -14.89740578179747 2.7022770339125723 -2.7403584098157068 2.9402928344303048 -4.409180951503756 36.68053618333861 -2.5258172878319183 -1.2752990222934413 -11.669710465431843 2.5802588116319014 -0.00001574782155518016 -30.631020681915825 0.000009146166151445868 -22.597103548442 -42.291900355665724 10.476254787970902 2.005159119700812 38.56714327501036 2.643795928158184 -22.28721392054171 -4.071060142096998 0.6276128594088929 -0.0018505208498664871 0.2059398783329118 -0.16481417225205444
